<svg width="39" height="299" viewBox="0 0 39 299" fill="none" xmlns="http://www.w3.org/2000/svg">
<path d="M2.1748 0.348633H21.0054C23.437 0.348633 25.561 0.60498 27.3774 1.11768C29.2085 1.63037 30.7319 2.34814 31.9478 3.271C33.1782 4.19385 34.1011 5.2998 34.7163 6.58887C35.3315 7.87793 35.6392 9.29883 35.6392 10.8516C35.6392 12.7705 35.1851 14.4771 34.2769 15.9712C33.3687 17.4507 32.021 18.6299 30.2339 19.5088L37.0894 33.022H22.7412L17.5557 21.1567H14.875V33H2.1748V0.348633ZM15.644 17.1797C16.6841 17.1797 17.6143 17.0332 18.4346 16.7402C19.2549 16.4473 19.9507 16.0371 20.522 15.5098C21.0933 14.9678 21.5327 14.3306 21.8403 13.5981C22.1479 12.8511 22.3018 12.0381 22.3018 11.1592C22.3018 10.2803 22.1479 9.47461 21.8403 8.74219C21.5327 7.99512 21.0933 7.35791 20.522 6.83057C19.9507 6.28857 19.2549 5.87109 18.4346 5.57812C17.6143 5.28516 16.6841 5.13867 15.644 5.13867H14.897L14.875 17.1797H15.644ZM2.1748 53.3486H29.7725V58.3804H14.897L14.875 67.1914H26.2568V72.2231H14.875V80.9683H29.7725V86H2.1748V53.3486ZM2.1748 106.349H19.4453C21.877 106.349 24.001 106.554 25.8174 106.964C27.6484 107.374 29.1719 107.96 30.3877 108.722C31.6182 109.469 32.541 110.377 33.1562 111.446C33.7715 112.501 34.0791 113.68 34.0791 114.984C34.0791 116.288 33.7129 117.518 32.9805 118.675C32.2627 119.818 31.208 120.807 29.8164 121.642C32.1016 122.301 33.8081 123.268 34.936 124.542C36.064 125.816 36.6279 127.376 36.6279 129.222C36.6279 130.482 36.3203 131.698 35.7051 132.87C35.1045 134.042 34.1963 135.082 32.9805 135.99C31.7793 136.898 30.2705 137.63 28.4541 138.187C26.6377 138.729 24.5137 139 22.082 139H2.1748V106.349ZM16.2373 119.62C17.4385 119.62 18.4492 119.51 19.2695 119.291C20.0898 119.056 20.7417 118.741 21.2251 118.346C21.7231 117.95 22.0747 117.496 22.2798 116.983C22.4995 116.471 22.6094 115.936 22.6094 115.379C22.6094 114.823 22.4995 114.288 22.2798 113.775C22.0747 113.263 21.7231 112.816 21.2251 112.435C20.7417 112.04 20.0898 111.725 19.2695 111.49C18.4492 111.256 17.4385 111.139 16.2373 111.139H14.897L14.875 119.62H16.2373ZM16.2373 134.21C17.541 134.21 18.6396 134.071 19.5332 133.792C20.4268 133.514 21.1519 133.133 21.7085 132.65C22.2651 132.167 22.668 131.603 22.917 130.958C23.166 130.299 23.2905 129.596 23.2905 128.849C23.2905 128.189 23.1587 127.545 22.895 126.915C22.6313 126.285 22.2358 125.729 21.7085 125.245C21.1958 124.747 20.5586 124.352 19.7969 124.059C19.0352 123.751 18.1562 123.597 17.1602 123.597H14.875V134.21H16.2373ZM0.263184 175.608C0.263184 173.133 0.658691 170.87 1.44971 168.819C2.24072 166.753 3.41992 164.981 4.9873 163.501C6.55469 162.022 8.51025 160.872 10.854 160.052C13.1978 159.231 15.9224 158.821 19.0278 158.821C22.1333 158.821 24.8579 159.231 27.2017 160.052C29.5454 160.872 31.501 162.022 33.0684 163.501C34.6357 164.981 35.8149 166.753 36.606 168.819C37.397 170.87 37.7925 173.133 37.7925 175.608C37.7925 178.113 37.397 180.406 36.606 182.486C35.8149 184.566 34.6357 186.346 33.0684 187.825C31.501 189.305 29.5454 190.455 27.2017 191.275C24.8579 192.095 22.1333 192.505 19.0278 192.505C15.9224 192.505 13.1978 192.095 10.854 191.275C8.51025 190.455 6.55469 189.305 4.9873 187.825C3.41992 186.346 2.24072 184.566 1.44971 182.486C0.658691 180.406 0.263184 178.113 0.263184 175.608ZM19.0278 187.957C19.9067 187.957 20.6831 187.803 21.3569 187.496C22.0308 187.188 22.5947 186.587 23.0488 185.694C23.5029 184.8 23.8472 183.548 24.0815 181.937C24.3159 180.325 24.4331 178.216 24.4331 175.608C24.4331 173.03 24.3159 170.943 24.0815 169.346C23.8472 167.75 23.5029 166.512 23.0488 165.633C22.5947 164.754 22.0308 164.161 21.3569 163.853C20.6831 163.545 19.9067 163.392 19.0278 163.392C18.1489 163.392 17.3652 163.545 16.6768 163.853C16.0029 164.161 15.439 164.754 14.9849 165.633C14.5308 166.512 14.1865 167.75 13.9521 169.346C13.7178 170.943 13.6006 173.03 13.6006 175.608C13.6006 178.216 13.7178 180.325 13.9521 181.937C14.1865 183.548 14.5308 184.8 14.9849 185.694C15.439 186.587 16.0029 187.188 16.6768 187.496C17.3652 187.803 18.1489 187.957 19.0278 187.957ZM0.263184 228.608C0.263184 226.133 0.658691 223.87 1.44971 221.819C2.24072 219.753 3.41992 217.981 4.9873 216.501C6.55469 215.022 8.51025 213.872 10.854 213.052C13.1978 212.231 15.9224 211.821 19.0278 211.821C22.1333 211.821 24.8579 212.231 27.2017 213.052C29.5454 213.872 31.501 215.022 33.0684 216.501C34.6357 217.981 35.8149 219.753 36.606 221.819C37.397 223.87 37.7925 226.133 37.7925 228.608C37.7925 231.113 37.397 233.406 36.606 235.486C35.8149 237.566 34.6357 239.346 33.0684 240.825C31.501 242.305 29.5454 243.455 27.2017 244.275C24.8579 245.095 22.1333 245.505 19.0278 245.505C15.9224 245.505 13.1978 245.095 10.854 244.275C8.51025 243.455 6.55469 242.305 4.9873 240.825C3.41992 239.346 2.24072 237.566 1.44971 235.486C0.658691 233.406 0.263184 231.113 0.263184 228.608ZM19.0278 240.957C19.9067 240.957 20.6831 240.803 21.3569 240.496C22.0308 240.188 22.5947 239.587 23.0488 238.694C23.5029 237.8 23.8472 236.548 24.0815 234.937C24.3159 233.325 24.4331 231.216 24.4331 228.608C24.4331 226.03 24.3159 223.943 24.0815 222.346C23.8472 220.75 23.5029 219.512 23.0488 218.633C22.5947 217.754 22.0308 217.161 21.3569 216.853C20.6831 216.545 19.9067 216.392 19.0278 216.392C18.1489 216.392 17.3652 216.545 16.6768 216.853C16.0029 217.161 15.439 217.754 14.9849 218.633C14.5308 219.512 14.1865 220.75 13.9521 222.346C13.7178 223.943 13.6006 226.03 13.6006 228.608C13.6006 231.216 13.7178 233.325 13.9521 234.937C14.1865 236.548 14.5308 237.8 14.9849 238.694C15.439 239.587 16.0029 240.188 16.6768 240.496C17.3652 240.803 18.1489 240.957 19.0278 240.957ZM2.1748 265.349H14.875V284.267L29.0034 265.349H35.3535L24.9385 279.367L38.5835 298.022H24.2793L16.9844 287.761L14.875 290.661V298H2.1748V265.349Z" fill="#FC4100"/>
</svg>
